<svg width="13" height="19" viewBox="0 0 13 19" fill="none" xmlns="http://www.w3.org/2000/svg">
<path fill-rule="evenodd" clip-rule="evenodd" d="M5.36577 0.0876263C2.66613 0.576436 0.548138 2.75661 0.0848054 5.52361C0.00580202 5.99547 0 6.26685 0 9.50152C0 12.7362 0.00580202 13.0076 0.0848054 13.4794C0.535966 16.1738 2.51262 18.2757 5.161 18.8774C5.78954 19.0203 6.89593 19.0416 7.56879 18.9238C10.3212 18.4423 12.4466 16.2779 12.9152 13.4794C12.9942 13.0076 13 12.7362 13 9.50152C13 6.26685 12.9942 5.99547 12.9152 5.52361C12.4485 2.73702 10.3216 0.561533 7.59719 0.0842352C6.94881 -0.0293669 6.00395 -0.0278944 5.36577 0.0876263ZM7.43687 1.98678C8.29832 2.1699 9.03696 2.56541 9.6799 3.18781C10.1246 3.61835 10.3938 3.99494 10.6683 4.57103C10.9256 5.11075 11.0596 5.57627 11.1246 6.15503C11.18 6.64937 11.18 12.3537 11.1246 12.848C11.0395 13.6065 10.7612 14.3909 10.3537 15.0208C10.1446 15.3439 9.65185 15.8789 9.33557 16.126C7.94959 17.2089 6.10699 17.416 4.55009 16.6639C4.02223 16.4089 3.7122 16.1949 3.32067 15.8152C2.77825 15.2892 2.44365 14.7826 2.16707 14.0684C1.84945 13.2482 1.85403 13.315 1.85403 9.50152C1.85403 5.68804 1.84945 5.75483 2.16707 4.93459C2.52039 4.02225 3.15158 3.20789 3.89581 2.70422C4.4833 2.30661 5.27752 2.00445 5.96984 1.91512C6.33667 1.86778 7.03845 1.90205 7.43687 1.98678ZM6.15101 3.8613C5.95383 3.94867 5.77183 4.12684 5.66713 4.33499C5.58965 4.48915 5.58389 4.61458 5.58389 6.15467C5.58389 7.54677 5.59458 7.83501 5.65142 7.97409C5.95928 8.72776 7.04072 8.72776 7.34858 7.97409C7.40542 7.83501 7.41611 7.54677 7.41611 6.15467C7.41611 4.61458 7.41035 4.48915 7.33287 4.33499C7.10319 3.87835 6.5831 3.66988 6.15101 3.8613Z" fill="#728095"/>
</svg>
