<svg width="59" height="46" viewBox="0 0 59 46" fill="none" xmlns="http://www.w3.org/2000/svg">
<line x1="58.5" y1="23" x2="38.5" y2="23" stroke="#728095"/>
<circle cx="23" cy="23" r="22" transform="rotate(90 23 23)" stroke="#728095"/>
<path fill-rule="evenodd" clip-rule="evenodd" d="M32.4124 21.8658C31.9236 19.1661 29.7434 17.0481 26.9764 16.5848C26.5045 16.5058 26.2332 16.5 22.9985 16.5C19.7638 16.5 19.4924 16.5058 19.0206 16.5848C16.3262 17.036 14.2243 19.0126 13.6226 21.661C13.4797 22.2895 13.4584 23.3959 13.5762 24.0688C14.0577 26.8212 16.2221 28.9466 19.0206 29.4152C19.4924 29.4942 19.7638 29.5 22.9985 29.5C26.2332 29.5 26.5045 29.4942 26.9764 29.4152C29.763 28.9485 31.9385 26.8216 32.4158 24.0972C32.5294 23.4488 32.5279 22.5039 32.4124 21.8658ZM30.5132 23.9369C30.3301 24.7983 29.9346 25.537 29.3122 26.1799C28.8817 26.6246 28.5051 26.8938 27.929 27.1683C27.3893 27.4256 26.9237 27.5596 26.345 27.6246C25.8506 27.68 20.1463 27.68 19.652 27.6246C18.8935 27.5395 18.1091 27.2612 17.4792 26.8537C17.1561 26.6446 16.6211 26.1518 16.374 25.8356C15.2911 24.4496 15.084 22.607 15.8361 21.0501C16.0911 20.5222 16.3051 20.2122 16.6848 19.8207C17.2108 19.2782 17.7174 18.9437 18.4316 18.6671C19.2518 18.3494 19.185 18.354 22.9985 18.354C26.812 18.354 26.7452 18.3494 27.5654 18.6671C28.4778 19.0204 29.2921 19.6516 29.7958 20.3958C30.1934 20.9833 30.4956 21.7775 30.5849 22.4698C30.6322 22.8367 30.598 23.5385 30.5132 23.9369ZM28.6387 22.651C28.5513 22.4538 28.3732 22.2718 28.165 22.1671C28.0109 22.0897 27.8854 22.0839 26.3453 22.0839C24.9532 22.0839 24.665 22.0946 24.5259 22.1514C23.7722 22.4593 23.7722 23.5407 24.5259 23.8486C24.665 23.9054 24.9532 23.9161 26.3453 23.9161C27.8854 23.9161 28.0109 23.9103 28.165 23.8329C28.6217 23.6032 28.8301 23.0831 28.6387 22.651Z" fill="#728095"/>
</svg>
